# xmcd
#
# Track frame offsets: 
#        183
#        16525
#        33685
#        52010
#        70058
#        89630
#        106370
#        123610
#        140138
#        157915
#        176168
#        192973
#
# Disc length: 2625 seconds
#
# Revision: 0
# Processed by: cddbd v1.5.2PL0 Copyright (c) Steve Scherf et al.
# Submitted via: ExactAudioCopy v0.99pb5
#
DISCID=aa0a3f0c
DTITLE=14 Bis - Quatro por Quatro
DYEAR=1900
DGENRE=
TTITLE0=Filme B
TTITLE1=O Fogo do Teu Olhar
TTITLE2=Eu já Fechei Meus Olhos (Mas Quem Não ?)
TTITLE3=Sem Final Feliz
TTITLE4=Luz na Escuridão
TTITLE5=Dona de Mim
TTITLE6=Clareiras
TTITLE7=Por Mim Agora
TTITLE8=Romance
TTITLE9=Cura Pela Luz
TTITLE10=Máscara Convencional
TTITLE11=Do Mar, de Minas
EXTD=
EXTT0=
EXTT1=
EXTT2=
EXTT3=
EXTT4=
EXTT5=
EXTT6=
EXTT7=
EXTT8=
EXTT9=
EXTT10=
EXTT11=
PLAYORDER=
